<svg height="1500" width="600" xmlns="http://www.w3.org/2000/svg"><g fill-rule="evenodd"><g stroke="#000"><path d="m277.80746 834.42914h45.496643v265.57089h-45.496643z" fill="#008080" stroke-linecap="square" stroke-width="2.73799"/><path d="m209.57003 538.2242s.12528-77.37775 90.79037-77.51157c90.66581-.13382 91.27278 77.1047 91.27278 77.1047l.17691 228.8277s-.42101 77.44333-91.53814 77.44333c-90.76332 0-90.90788-77.7327-90.90788-77.7327z" fill="#fff" stroke-width="3.65066"/><path d="m218.2667 538.20075s-.30624-68.12153 81.95064-68.35592c82.25715-.23439 82.95109 68.42582 82.95109 68.42582l-.0152 227.80317s-.81582 68.74918-82.87152 68.74918c-81.17118 0-82.22973-68.53704-82.22973-68.53704z" fill="#dde" stroke-width="1.82533"/></g><ellipse cx="300.31921" cy="538.21356" fill="#cc3b3f" rx="43.351532" ry="43.351566" stroke="#d04444" stroke-linecap="square" stroke-width="10.3106"/><ellipse cx="300.31921" cy="652.29663" fill="#999" rx="43.351532" ry="43.351566" stroke="#444" stroke-linecap="square" stroke-width="10.3106"/><ellipse cx="300.31921" cy="772.29663" fill="#999" rx="43.351532" ry="43.351566" stroke="#444" stroke-linecap="square" stroke-width="10.3106"/></g></svg>